# xmcd CD database file
#
# Track frame offsets:
#	150
#	13288
#	24698
#	37170
#	50205
#	61910
#	72648
#	90950
#	103425
#	117543
#	132310
#	145693
#	159033
#	178440
#	196735
#	213713
#	228793
#	243073
#	250923
#	265753
#	281450
#	298313
#	314403
#
# Disc length: 4431 seconds
#
# Revision: 4
# Processed by: cddbd v1.5.2PL0 Copyright (c) Steve Scherf et al.
# Submitted via: CDex 1.70beta2
#
DISCID=64114d17
DTITLE=Various Artist - Samba Com Jazz
DYEAR=1991
DGENRE=Jazz
TTITLE0=Quarteto Em Cy - Milagre
TTITLE1=Zimbo Trio - Água De Beber
TTITLE2=Milton Nascimento - Três Pontas
TTITLE3=Antonio Jobim and Miucha - Samba Do Avião
TTITLE4=Zimbo Trio - Reza
TTITLE5=Maria Creuza - Mas Que Nada
TTITLE6=Rosa Passos and Emílio Santiago - Samba Sem Você
TTITLE7=Chico Buarque - Bom Tempo
TTITLE8=Djavan - Muito Obrigado
TTITLE9=Vinicius and Toquinho - Como Dizia O Poeta
TTITLE10=Chico Buarque - Noite Dos Mascarados
TTITLE11=Zimbo Trio - Consolação
TTITLE12=Luiz Melodia - O Morro Não Engana
TTITLE13=Sandra Sá - Canção De Búzios
TTITLE14=Marcos Valle - Samba De Verão
TTITLE15=Gal Costa - Bem Bom
TTITLE16=Gilberto Gil - Pra Fazer O Sol Nascer
TTITLE17=Chico Buarque - Madalena Fui Pro Mar
TTITLE18=Olivia Hime and Dory Caymmi - Requebra Que Eu Dou Um Doce - Um Vestido De Bolero
TTITLE19=Chico Buarque - Onde É Que Voce Esteva
TTITLE20=Milton Nascimento - Gira Giro
TTITLE21=Zimbo Trio - Arrastão
TTITLE22=Alceu Valença - Espelho Cristalino
EXTD=YEAR: 1991
EXTT0=
EXTT1=
EXTT2=
EXTT3=
EXTT4=
EXTT5=
EXTT6=
EXTT7=
EXTT8=
EXTT9=
EXTT10=
EXTT11=
EXTT12=
EXTT13=
EXTT14=
EXTT15=
EXTT16=
EXTT17=
EXTT18=
EXTT19=
EXTT20=
EXTT21=
EXTT22=
PLAYORDER=
